<?xml version="1.0" encoding="UTF-8"?>
<!-- Do not edit this file with editors other than draw.io -->
<!DOCTYPE svg PUBLIC "-//W3C//DTD SVG 1.1//EN" "http://www.w3.org/Graphics/SVG/1.1/DTD/svg11.dtd">
<svg xmlns="http://www.w3.org/2000/svg" xmlns:xlink="http://www.w3.org/1999/xlink" version="1.1" width="581px" height="591px" viewBox="-0.5 -0.5 581 591" content="&lt;mxfile host=&quot;app.diagrams.net&quot; modified=&quot;2023-09-22T19:23:27.524Z&quot; agent=&quot;Mozilla/5.0 (Macintosh; Intel Mac OS X 10_15_7) AppleWebKit/605.1.15 (KHTML, like Gecko) Version/16.6 Safari/605.1.15&quot; etag=&quot;7L3RT3dnzFooq6rQjd88&quot; version=&quot;21.8.1&quot; type=&quot;github&quot;&gt;&#10;  &lt;diagram id=&quot;C5RBs43oDa-KdzZeNtuy&quot; name=&quot;Page-1&quot;&gt;&#10;    &lt;mxGraphModel dx=&quot;834&quot; dy=&quot;696&quot; grid=&quot;1&quot; gridSize=&quot;10&quot; guides=&quot;1&quot; tooltips=&quot;1&quot; connect=&quot;1&quot; arrows=&quot;1&quot; fold=&quot;1&quot; page=&quot;1&quot; pageScale=&quot;1&quot; pageWidth=&quot;827&quot; pageHeight=&quot;1169&quot; math=&quot;0&quot; shadow=&quot;0&quot;&gt;&#10;      &lt;root&gt;&#10;        &lt;mxCell id=&quot;WIyWlLk6GJQsqaUBKTNV-0&quot; /&gt;&#10;        &lt;mxCell id=&quot;WIyWlLk6GJQsqaUBKTNV-1&quot; parent=&quot;WIyWlLk6GJQsqaUBKTNV-0&quot; /&gt;&#10;        &lt;mxCell id=&quot;Lz3SwlExN8Vi15EXKa8q-5&quot; value=&quot;&quot; style=&quot;dashed=0;outlineConnect=0;html=1;align=center;labelPosition=center;verticalLabelPosition=bottom;verticalAlign=top;shape=mxgraph.weblogos.apple;fillColor=none;rounded=0;&quot; vertex=&quot;1&quot; parent=&quot;WIyWlLk6GJQsqaUBKTNV-1&quot;&gt;&#10;          &lt;mxGeometry x=&quot;203.62&quot; y=&quot;92.94&quot; width=&quot;32.75&quot; height=&quot;40&quot; as=&quot;geometry&quot; /&gt;&#10;        &lt;/mxCell&gt;&#10;        &lt;mxCell id=&quot;Lz3SwlExN8Vi15EXKa8q-7&quot; value=&quot;&quot; style=&quot;pointerEvents=1;shadow=0;dashed=0;html=1;labelPosition=center;verticalLabelPosition=bottom;verticalAlign=top;outlineConnect=0;align=center;shape=mxgraph.office.devices.cell_phone_android_proportional;rounded=0;fillStyle=solid;fillColor=#60a917;strokeColor=#2D7600;fontColor=#ffffff;&quot; vertex=&quot;1&quot; parent=&quot;WIyWlLk6GJQsqaUBKTNV-1&quot;&gt;&#10;          &lt;mxGeometry x=&quot;580&quot; y=&quot;40&quot; width=&quot;80&quot; height=&quot;145.88&quot; as=&quot;geometry&quot; /&gt;&#10;        &lt;/mxCell&gt;&#10;        &lt;mxCell id=&quot;Lz3SwlExN8Vi15EXKa8q-9&quot; value=&quot;&quot; style=&quot;pointerEvents=1;shadow=0;dashed=0;html=1;strokeColor=#006EAF;fillColor=#1ba1e2;labelPosition=center;verticalLabelPosition=bottom;verticalAlign=top;outlineConnect=0;align=center;shape=mxgraph.office.devices.cell_phone_iphone_proportional;fontColor=#ffffff;rounded=0;&quot; vertex=&quot;1&quot; parent=&quot;WIyWlLk6GJQsqaUBKTNV-1&quot;&gt;&#10;          &lt;mxGeometry x=&quot;179.99&quot; y=&quot;44.709999999999994&quot; width=&quot;80&quot; height=&quot;136.47&quot; as=&quot;geometry&quot; /&gt;&#10;        &lt;/mxCell&gt;&#10;        &lt;mxCell id=&quot;Lz3SwlExN8Vi15EXKa8q-8&quot; value=&quot;&quot; style=&quot;shape=image;html=1;verticalAlign=top;verticalLabelPosition=bottom;labelBackgroundColor=#ffffff;imageAspect=0;aspect=fixed;image=https://cdn4.iconfinder.com/data/icons/ionicons/512/icon-social-android-128.png;strokeColor=#788AA3;fontColor=#46495D;fillColor=#B2C9AB;rounded=0;imageBackground=none;&quot; vertex=&quot;1&quot; parent=&quot;WIyWlLk6GJQsqaUBKTNV-1&quot;&gt;&#10;          &lt;mxGeometry x=&quot;590&quot; y=&quot;82.94&quot; width=&quot;60&quot; height=&quot;60&quot; as=&quot;geometry&quot; /&gt;&#10;        &lt;/mxCell&gt;&#10;        &lt;mxCell id=&quot;Lz3SwlExN8Vi15EXKa8q-10&quot; value=&quot;&quot; style=&quot;shape=cylinder3;whiteSpace=wrap;html=1;boundedLbl=1;backgroundOutline=1;size=15;fillColor=#1ba1e2;strokeColor=#006EAF;fontColor=#ffffff;&quot; vertex=&quot;1&quot; parent=&quot;WIyWlLk6GJQsqaUBKTNV-1&quot;&gt;&#10;          &lt;mxGeometry x=&quot;159.99&quot; y=&quot;210&quot; width=&quot;120&quot; height=&quot;130&quot; as=&quot;geometry&quot; /&gt;&#10;        &lt;/mxCell&gt;&#10;        &lt;mxCell id=&quot;Lz3SwlExN8Vi15EXKa8q-11&quot; value=&quot;&quot; style=&quot;shape=cylinder3;whiteSpace=wrap;html=1;boundedLbl=1;backgroundOutline=1;size=15;fillColor=#60a917;strokeColor=#2D7600;fontColor=#ffffff;&quot; vertex=&quot;1&quot; parent=&quot;WIyWlLk6GJQsqaUBKTNV-1&quot;&gt;&#10;          &lt;mxGeometry x=&quot;560&quot; y=&quot;210&quot; width=&quot;120&quot; height=&quot;130&quot; as=&quot;geometry&quot; /&gt;&#10;        &lt;/mxCell&gt;&#10;        &lt;mxCell id=&quot;Lz3SwlExN8Vi15EXKa8q-12&quot; value=&quot;&quot; style=&quot;shape=step;perimeter=stepPerimeter;whiteSpace=wrap;html=1;fixedSize=1;fillColor=#bac8d3;strokeColor=#23445d;&quot; vertex=&quot;1&quot; parent=&quot;WIyWlLk6GJQsqaUBKTNV-1&quot;&gt;&#10;          &lt;mxGeometry x=&quot;290&quot; y=&quot;240&quot; width=&quot;260&quot; height=&quot;80&quot; as=&quot;geometry&quot; /&gt;&#10;        &lt;/mxCell&gt;&#10;        &lt;mxCell id=&quot;Lz3SwlExN8Vi15EXKa8q-13&quot; value=&quot;&quot; style=&quot;shape=hexagon;perimeter=hexagonPerimeter2;whiteSpace=wrap;html=1;fixedSize=1;fillColor=#1ba1e2;strokeColor=#006EAF;fontColor=#ffffff;size=30;&quot; vertex=&quot;1&quot; parent=&quot;WIyWlLk6GJQsqaUBKTNV-1&quot;&gt;&#10;          &lt;mxGeometry x=&quot;130&quot; y=&quot;390&quot; width=&quot;180&quot; height=&quot;120&quot; as=&quot;geometry&quot; /&gt;&#10;        &lt;/mxCell&gt;&#10;        &lt;mxCell id=&quot;Lz3SwlExN8Vi15EXKa8q-14&quot; value=&quot;&quot; style=&quot;shape=hexagon;perimeter=hexagonPerimeter2;whiteSpace=wrap;html=1;fixedSize=1;fillColor=#60a917;strokeColor=#2D7600;fontColor=#ffffff;&quot; vertex=&quot;1&quot; parent=&quot;WIyWlLk6GJQsqaUBKTNV-1&quot;&gt;&#10;          &lt;mxGeometry x=&quot;530&quot; y=&quot;390&quot; width=&quot;180&quot; height=&quot;120&quot; as=&quot;geometry&quot; /&gt;&#10;        &lt;/mxCell&gt;&#10;        &lt;mxCell id=&quot;Lz3SwlExN8Vi15EXKa8q-15&quot; value=&quot;&quot; style=&quot;shape=cube;whiteSpace=wrap;html=1;boundedLbl=1;backgroundOutline=1;darkOpacity=0.05;darkOpacity2=0.1;flipH=1;fillColor=#1ba1e2;fontColor=#ffffff;strokeColor=#006EAF;&quot; vertex=&quot;1&quot; parent=&quot;WIyWlLk6GJQsqaUBKTNV-1&quot;&gt;&#10;          &lt;mxGeometry x=&quot;140&quot; y=&quot;570&quot; width=&quot;140&quot; height=&quot;60&quot; as=&quot;geometry&quot; /&gt;&#10;        &lt;/mxCell&gt;&#10;        &lt;mxCell id=&quot;Lz3SwlExN8Vi15EXKa8q-16&quot; value=&quot;&quot; style=&quot;shape=cube;whiteSpace=wrap;html=1;boundedLbl=1;backgroundOutline=1;darkOpacity=0.05;darkOpacity2=0.1;flipH=1;fillColor=#60a917;fontColor=#ffffff;strokeColor=#2D7600;&quot; vertex=&quot;1&quot; parent=&quot;WIyWlLk6GJQsqaUBKTNV-1&quot;&gt;&#10;          &lt;mxGeometry x=&quot;540&quot; y=&quot;570&quot; width=&quot;140&quot; height=&quot;60&quot; as=&quot;geometry&quot; /&gt;&#10;        &lt;/mxCell&gt;&#10;        &lt;mxCell id=&quot;Lz3SwlExN8Vi15EXKa8q-18&quot; value=&quot;&quot; style=&quot;shape=cube;whiteSpace=wrap;html=1;boundedLbl=1;backgroundOutline=1;darkOpacity=0.05;darkOpacity2=0.1;flipH=1;fillColor=#6d8764;fontColor=#ffffff;strokeColor=#3A5431;&quot; vertex=&quot;1&quot; parent=&quot;WIyWlLk6GJQsqaUBKTNV-1&quot;&gt;&#10;          &lt;mxGeometry x=&quot;334&quot; y=&quot;570&quot; width=&quot;140&quot; height=&quot;60&quot; as=&quot;geometry&quot; /&gt;&#10;        &lt;/mxCell&gt;&#10;        &lt;mxCell id=&quot;Lz3SwlExN8Vi15EXKa8q-19&quot; value=&quot;&quot; style=&quot;shape=flexArrow;endArrow=classic;html=1;rounded=0;fillColor=#fa6800;strokeColor=#C73500;width=62;endSize=18;&quot; edge=&quot;1&quot; parent=&quot;WIyWlLk6GJQsqaUBKTNV-1&quot; source=&quot;Lz3SwlExN8Vi15EXKa8q-13&quot; target=&quot;Lz3SwlExN8Vi15EXKa8q-14&quot;&gt;&#10;          &lt;mxGeometry width=&quot;50&quot; height=&quot;50&quot; relative=&quot;1&quot; as=&quot;geometry&quot;&gt;&#10;            &lt;mxPoint x=&quot;370&quot; y=&quot;460&quot; as=&quot;sourcePoint&quot; /&gt;&#10;            &lt;mxPoint x=&quot;420&quot; y=&quot;410&quot; as=&quot;targetPoint&quot; /&gt;&#10;          &lt;/mxGeometry&gt;&#10;        &lt;/mxCell&gt;&#10;      &lt;/root&gt;&#10;    &lt;/mxGraphModel&gt;&#10;  &lt;/diagram&gt;&#10;&lt;/mxfile&gt;&#10;" resource="https://app.diagrams.net/#Hskiptools%2Fassets.skip.tools%2Fmain%2FUntitled%20Diagram.drawio.svg"><defs/><g><path d="M 90.34 62.02 C 90.13 60.14 90.75 57.94 92.62 55.74 C 94.48 53.88 96.38 53.18 98.22 52.94 C 98.35 55.59 97.59 57.46 96.21 59.14 C 94.95 60.78 92.62 62.2 90.34 62.02 Z M 106.37 81.84 C 105.46 84.96 102.86 89.15 100.79 90.92 C 98.54 92.9 96.22 92.3 94.28 91.39 C 92.25 90.45 90.04 90.44 87.83 91.41 C 85.62 92.4 83.85 92.94 81.68 91.11 C 79.66 89.5 76.98 85.28 76.01 82.48 C 74.06 77.51 73.62 71.84 75.98 67.58 C 77.92 63.94 82.51 61.84 85.99 62.85 C 86.82 63.03 88.09 63.51 89.03 63.91 C 90.94 64.89 92.23 63.79 93.94 63.25 C 96.59 62.2 98.59 62.29 101.1 63.09 C 102.91 63.72 104.38 64.97 105.35 66.39 C 102.63 68.06 100.82 71.16 101.12 74.62 C 101.55 78.31 103.66 80.64 106.37 81.84 Z" fill="none" stroke="rgb(0, 0, 0)" stroke-miterlimit="10" pointer-events="all"/><rect x="450" y="0" width="80" height="145.88" fill="none" stroke="none" pointer-events="all"/><path d="M 496.93 15.8 C 498.28 15.8 498.7 14.74 498.7 14.04 C 498.7 13.35 498.23 12.33 496.93 12.33 L 482.93 12.33 C 481.86 12.33 481.3 13.11 481.3 14.04 C 481.3 15.34 482.28 15.8 482.93 15.8 Z M 498.7 133.97 C 500.92 133.97 502.17 132.39 502.17 130.49 C 502.17 128.83 501.2 127.02 498.7 127.02 L 481.26 127.02 C 479.12 127.02 477.78 128.55 477.78 130.49 C 477.92 132.49 479.03 133.97 481.26 133.97 Z M 456.96 120.07 L 523.04 120.07 L 523.04 22.75 L 456.96 22.75 Z M 450 21.13 C 450.05 14.92 453.66 8.25 461.13 5.47 C 472.08 1.34 504.03 0 518.78 5.47 C 525.46 8.06 530 14.32 530 21.04 L 530 125.49 C 530 130.82 526.66 137.45 519.8 140.41 C 505.56 145.88 471.29 145.56 459.88 140.27 C 453.57 137.26 450.28 131.61 450 125.49 Z" fill="#60a917" stroke="#2d7600" stroke-miterlimit="10" pointer-events="all"/><rect x="49.99" y="4.71" width="80" height="136.47" fill="none" stroke="none" pointer-events="all"/><path d="M 98.54 14.88 C 99.29 14.88 99.61 14.55 99.61 13.81 C 99.61 13.15 99.19 12.78 98.54 12.78 L 81.72 12.78 C 80.97 12.78 80.74 13.43 80.74 13.81 C 80.74 14.27 81.16 14.88 81.72 14.88 Z M 119.88 116.69 L 119.88 25.71 L 60.47 25.71 L 60.47 116.69 Z M 90.25 134.23 C 92.3 134.23 95.42 132.6 95.42 128.82 C 95.42 126.16 93.09 123.73 90.25 123.73 C 87.03 123.73 84.93 126.39 84.93 128.82 C 84.93 132.55 88.01 134.23 90.25 134.23 Z M 60.29 141.18 C 54.98 141.18 49.99 137.07 49.99 130.73 L 49.99 15.21 C 49.99 9.38 54.51 4.71 60.33 4.71 L 119.32 4.71 C 125.61 4.71 129.99 9.8 129.99 15.07 L 129.99 130.64 C 129.99 137.49 124.49 141.18 119.88 141.18 Z" fill="#1ba1e2" stroke="#006eaf" stroke-miterlimit="10" pointer-events="all"/><image x="459.5" y="42.44" width="60" height="60" xlink:href="https://cdn4.iconfinder.com/data/icons/ionicons/512/icon-social-android-128.png" preserveAspectRatio="none"/><path d="M 29.99 185 C 29.99 176.72 56.85 170 89.99 170 C 105.9 170 121.16 171.58 132.42 174.39 C 143.67 177.21 149.99 181.02 149.99 185 L 149.99 285 C 149.99 293.28 123.13 300 89.99 300 C 56.85 300 29.99 293.28 29.99 285 Z" fill="#1ba1e2" stroke="#006eaf" stroke-miterlimit="10" pointer-events="all"/><path d="M 149.99 185 C 149.99 193.28 123.13 200 89.99 200 C 56.85 200 29.99 193.28 29.99 185" fill="none" stroke="#006eaf" stroke-miterlimit="10" pointer-events="all"/><path d="M 430 185 C 430 176.72 456.86 170 490 170 C 505.91 170 521.17 171.58 532.43 174.39 C 543.68 177.21 550 181.02 550 185 L 550 285 C 550 293.28 523.14 300 490 300 C 456.86 300 430 293.28 430 285 Z" fill="#60a917" stroke="#2d7600" stroke-miterlimit="10" pointer-events="all"/><path d="M 550 185 C 550 193.28 523.14 200 490 200 C 456.86 200 430 193.28 430 185" fill="none" stroke="#2d7600" stroke-miterlimit="10" pointer-events="all"/><path d="M 160 200 L 400 200 L 420 240 L 400 280 L 160 280 L 180 240 Z" fill="#bac8d3" stroke="#23445d" stroke-miterlimit="10" pointer-events="all"/><path d="M 30 350 L 150 350 L 180 410 L 150 470 L 30 470 L 0 410 Z" fill="#1ba1e2" stroke="#006eaf" stroke-miterlimit="10" pointer-events="all"/><path d="M 420 350 L 560 350 L 580 410 L 560 470 L 420 470 L 400 410 Z" fill="#60a917" stroke="#2d7600" stroke-miterlimit="10" pointer-events="all"/><path d="M 10 530 L 130 530 L 150 550 L 150 590 L 30 590 L 10 570 L 10 530 Z" fill="#1ba1e2" stroke="#006eaf" stroke-miterlimit="10" transform="translate(80,0)scale(-1,1)translate(-80,0)" pointer-events="all"/><path d="M 10 530 L 130 530 L 150 550 L 30 550 Z" fill-opacity="0.05" fill="#000000" stroke="none" transform="translate(80,0)scale(-1,1)translate(-80,0)" pointer-events="all"/><path d="M 10 530 L 30 550 L 30 590 L 10 570 Z" fill-opacity="0.1" fill="#000000" stroke="none" transform="translate(80,0)scale(-1,1)translate(-80,0)" pointer-events="all"/><path d="M 30 590 L 30 550 L 10 530 M 30 550 L 150 550" fill="none" stroke="#006eaf" stroke-miterlimit="10" transform="translate(80,0)scale(-1,1)translate(-80,0)" pointer-events="all"/><path d="M 410 530 L 530 530 L 550 550 L 550 590 L 430 590 L 410 570 L 410 530 Z" fill="#60a917" stroke="#2d7600" stroke-miterlimit="10" transform="translate(480,0)scale(-1,1)translate(-480,0)" pointer-events="all"/><path d="M 410 530 L 530 530 L 550 550 L 430 550 Z" fill-opacity="0.05" fill="#000000" stroke="none" transform="translate(480,0)scale(-1,1)translate(-480,0)" pointer-events="all"/><path d="M 410 530 L 430 550 L 430 590 L 410 570 Z" fill-opacity="0.1" fill="#000000" stroke="none" transform="translate(480,0)scale(-1,1)translate(-480,0)" pointer-events="all"/><path d="M 430 590 L 430 550 L 410 530 M 430 550 L 550 550" fill="none" stroke="#2d7600" stroke-miterlimit="10" transform="translate(480,0)scale(-1,1)translate(-480,0)" pointer-events="all"/><path d="M 204 530 L 324 530 L 344 550 L 344 590 L 224 590 L 204 570 L 204 530 Z" fill="#6d8764" stroke="#3a5431" stroke-miterlimit="10" transform="translate(274,0)scale(-1,1)translate(-274,0)" pointer-events="all"/><path d="M 204 530 L 324 530 L 344 550 L 224 550 Z" fill-opacity="0.05" fill="#000000" stroke="none" transform="translate(274,0)scale(-1,1)translate(-274,0)" pointer-events="all"/><path d="M 204 530 L 224 550 L 224 590 L 204 570 Z" fill-opacity="0.1" fill="#000000" stroke="none" transform="translate(274,0)scale(-1,1)translate(-274,0)" pointer-events="all"/><path d="M 224 590 L 224 550 L 204 530 M 224 550 L 344 550" fill="none" stroke="#3a5431" stroke-miterlimit="10" transform="translate(274,0)scale(-1,1)translate(-274,0)" pointer-events="all"/><path d="M 180.5 441 L 180.5 379 L 344.5 379 L 344.5 368.5 L 399.5 410 L 344.5 451.5 L 344.5 441 Z" fill="#fa6800" stroke="#c73500" stroke-miterlimit="10" pointer-events="all"/></g></svg>