<?xml version="1.0" encoding="UTF-8"?>
<svg width="1850px" height="428px" viewBox="0 0 1850 428" version="1.1" xmlns="http://www.w3.org/2000/svg" xmlns:xlink="http://www.w3.org/1999/xlink">
    <title>skiplogo</title>
    <defs>
        <linearGradient x1="21.4225674%" y1="-1.60461922e-15%" x2="78.5774326%" y2="100%" id="linearGradient-1">
            <stop stop-color="#448CCE" offset="0%"></stop>
            <stop stop-color="#29A768" offset="100%"></stop>
        </linearGradient>
        <path d="M27.4009222,151.171875 C28.0845159,163.378906 30.9653753,173.291016 36.0435003,180.908203 C45.711469,195.166016 62.7524847,202.294922 87.1665472,202.294922 C98.1040472,202.294922 108.064985,200.732422 117.04936,197.607422 C134.432172,191.552734 143.123578,180.712891 143.123578,165.087891 C143.123578,153.369141 139.461469,145.019531 132.13725,140.039062 C124.715375,135.15625 113.094282,130.908203 97.273969,127.294922 L68.1235784,120.703125 C49.0806097,116.40625 35.6040472,111.669922 27.6938909,106.494141 C14.0220159,97.5097656 7.18607842,84.0820312 7.18607842,66.2109375 C7.18607842,46.875 13.8755315,31.0058594 27.2544378,18.6035156 C40.633344,6.20117188 59.5786565,0 84.0903753,0 C106.648969,0 125.814008,5.44433594 141.585492,16.3330078 C157.356977,27.2216797 165.242719,44.6289062 165.242719,68.5546875 L137.850141,68.5546875 C136.385297,57.03125 133.260297,48.1933594 128.475141,42.0410156 C119.588422,30.8105469 104.500532,25.1953125 83.211469,25.1953125 C66.023969,25.1953125 53.6704534,28.8085938 46.1509222,36.0351562 C38.6313909,43.2617188 34.8716253,51.6601562 34.8716253,61.2304687 C34.8716253,71.7773438 39.2661565,79.4921875 48.055219,84.375 C53.8169378,87.5 66.8540472,91.40625 87.1665472,96.09375 L117.342328,102.978516 C131.89311,106.298828 143.123578,110.839844 151.033735,116.601562 C164.70561,126.660156 171.541547,141.259766 171.541547,160.400391 C171.541547,184.228516 162.874555,201.269531 145.540571,211.523438 C128.206586,221.777344 108.064985,226.904297 85.1157659,226.904297 C58.3579534,226.904297 37.4106878,220.068359 22.273969,206.396484 C7.1372503,192.822266 -0.284624703,174.414062 0.00834404668,151.171875 L27.4009222,151.171875 Z" id="path-2"></path>
        <linearGradient x1="21.4225674%" y1="-1.60461922e-15%" x2="78.5774326%" y2="100%" id="linearGradient-3">
            <stop stop-color="#448CCE" offset="0%"></stop>
            <stop stop-color="#448CCE" offset="100%"></stop>
        </linearGradient>
        <linearGradient x1="16.5238621%" y1="-1.60461922e-15%" x2="83.4761379%" y2="100%" id="linearGradient-4">
            <stop stop-color="#448CCE" offset="0%"></stop>
            <stop stop-color="#29A768" offset="100%"></stop>
        </linearGradient>
        <polygon id="path-5" points="217.686379 5.41992188 246.104348 5.41992188 246.104348 110.302734 350.98716 5.41992188 391.270363 5.41992188 301.76841 92.1386719 393.760598 220.605469 355.821145 220.605469 280.528176 112.646484 246.104348 145.605469 246.104348 220.605469 217.686379 220.605469"></polygon>
        <linearGradient x1="16.5238621%" y1="-1.60461922e-15%" x2="83.4761379%" y2="100%" id="linearGradient-6">
            <stop stop-color="#448CCE" offset="0%"></stop>
            <stop stop-color="#448CCE" offset="100%"></stop>
        </linearGradient>
        <linearGradient x1="49.063908%" y1="-1.60461922e-15%" x2="50.936092%" y2="100%" id="linearGradient-7">
            <stop stop-color="#448CCE" offset="0%"></stop>
            <stop stop-color="#29A768" offset="100%"></stop>
        </linearGradient>
        <polygon id="path-8" points="433.606601 5.41992188 463.049961 5.41992188 463.049961 220.605469 433.606601 220.605469"></polygon>
        <linearGradient x1="49.063908%" y1="-1.60461922e-15%" x2="50.936092%" y2="100%" id="linearGradient-9">
            <stop stop-color="#448CCE" offset="0%"></stop>
            <stop stop-color="#448CCE" offset="100%"></stop>
        </linearGradient>
        <linearGradient x1="22.1169891%" y1="-1.60461922e-15%" x2="77.8830109%" y2="100%" id="linearGradient-10">
            <stop stop-color="#448CCE" offset="0%"></stop>
            <stop stop-color="#29A768" offset="100%"></stop>
        </linearGradient>
        <path d="M522.378386,5.41992188 L619.204558,5.41992188 C638.345183,5.41992188 653.77487,10.8154297 665.49362,21.6064453 C677.21237,32.3974609 683.071745,47.5585938 683.071745,67.0898438 C683.071745,83.8867188 677.847136,98.5107422 667.397917,110.961914 C656.948699,123.413086 640.884245,129.638672 619.204558,129.638672 L551.528777,129.638672 L551.528777,220.605469 L522.378386,220.605469 L522.378386,5.41992188 Z M653.628386,67.2363281 C653.628386,51.4160156 647.769011,40.6738281 636.050261,35.0097656 C629.604949,31.9824219 620.767058,30.46875 609.536589,30.46875 L551.528777,30.46875 L551.528777,105.029297 L609.536589,105.029297 C622.622527,105.029297 633.242644,102.246094 641.396941,96.6796875 C649.551238,91.1132812 653.628386,81.2988281 653.628386,67.2363281 Z" id="path-11"></path>
        <linearGradient x1="22.1169891%" y1="-1.60461922e-15%" x2="77.8830109%" y2="100%" id="linearGradient-12">
            <stop stop-color="#448CCE" offset="0%"></stop>
            <stop stop-color="#448CCE" offset="100%"></stop>
        </linearGradient>
        <linearGradient x1="4.04322027%" y1="-1.60461922e-15%" x2="95.9567797%" y2="100%" id="linearGradient-13">
            <stop stop-color="#448CCE" offset="0%"></stop>
            <stop stop-color="#29A768" offset="100%"></stop>
        </linearGradient>
        <polygon id="path-14" points="693.034937 188.671875 723.650171 188.671875 723.650171 220.605469 693.034937 220.605469"></polygon>
        <linearGradient x1="4.04322027%" y1="-1.60461922e-15%" x2="95.9567797%" y2="100%" id="linearGradient-15">
            <stop stop-color="#448CCE" offset="0%"></stop>
            <stop stop-color="#448CCE" offset="100%"></stop>
        </linearGradient>
        <linearGradient x1="43.5542157%" y1="-1.60461922e-15%" x2="56.4457843%" y2="100%" id="linearGradient-16">
            <stop stop-color="#448CCE" offset="0%"></stop>
            <stop stop-color="#29A768" offset="100%"></stop>
        </linearGradient>
        <path d="M784.589925,19.921875 L811.250081,19.921875 L811.250081,63.7207031 L836.298909,63.7207031 L836.298909,85.2539062 L811.250081,85.2539062 L811.250081,187.646484 C811.250081,193.115234 813.10555,196.777344 816.816487,198.632812 C818.867268,199.707031 822.285237,200.244141 827.070393,200.244141 C828.339925,200.244141 829.707112,200.219727 831.171956,200.170898 C832.6368,200.12207 834.345784,200 836.298909,199.804688 L836.298909,220.605469 C833.271565,221.484375 830.122151,222.119141 826.850667,222.509766 C823.579182,222.900391 820.039143,223.095703 816.23055,223.095703 C803.925862,223.095703 795.576253,219.946289 791.181721,213.647461 C786.78719,207.348633 784.589925,199.169922 784.589925,189.111328 L784.589925,85.2539062 L763.34969,85.2539062 L763.34969,63.7207031 L784.589925,63.7207031 L784.589925,19.921875 Z" id="path-17"></path>
        <linearGradient x1="43.5542157%" y1="-1.60461922e-15%" x2="56.4457843%" y2="100%" id="linearGradient-18">
            <stop stop-color="#448CCE" offset="0%"></stop>
            <stop stop-color="#448CCE" offset="100%"></stop>
        </linearGradient>
        <linearGradient x1="11.7475023%" y1="-1.60461922e-15%" x2="88.2524977%" y2="100%" id="linearGradient-19">
            <stop stop-color="#448CCE" offset="0%"></stop>
            <stop stop-color="#29A768" offset="100%"></stop>
        </linearGradient>
        <path d="M934.152725,203.613281 C951.633194,203.613281 963.620498,196.99707 970.114639,183.764648 C976.60878,170.532227 979.85585,155.810547 979.85585,139.599609 C979.85585,124.951172 977.5121,113.037109 972.8246,103.857422 C965.402725,89.4042969 952.609756,82.1777344 934.445694,82.1777344 C918.332413,82.1777344 906.613663,88.3300781 899.289444,100.634766 C891.965225,112.939453 888.303116,127.783203 888.303116,145.166016 C888.303116,161.865234 891.965225,175.78125 899.289444,186.914062 C906.613663,198.046875 918.234756,203.613281 934.152725,203.613281 Z M935.178116,59.1796875 C955.392959,59.1796875 972.482803,65.9179688 986.447647,79.3945312 C1000.41249,92.8710938 1007.39491,112.695312 1007.39491,138.867188 C1007.39491,164.160156 1001.24257,185.058594 988.937881,201.5625 C976.633194,218.066406 957.541397,226.318359 931.662491,226.318359 C910.080459,226.318359 892.941788,219.018555 880.246475,204.418945 C867.551163,189.819336 861.203506,170.214844 861.203506,145.605469 C861.203506,119.238281 867.892959,98.2421875 881.271866,82.6171875 C894.650772,66.9921875 912.619522,59.1796875 935.178116,59.1796875 Z" id="path-20"></path>
        <linearGradient x1="11.7475023%" y1="-1.60461922e-15%" x2="88.2524977%" y2="100%" id="linearGradient-21">
            <stop stop-color="#448CCE" offset="0%"></stop>
            <stop stop-color="#448CCE" offset="100%"></stop>
        </linearGradient>
        <path d="M1110.2292,203.613281 C1127.70967,203.613281 1139.69697,196.99707 1146.19111,183.764648 C1152.68525,170.532227 1155.93232,155.810547 1155.93232,139.599609 C1155.93232,124.951172 1153.58857,113.037109 1148.90107,103.857422 C1141.4792,89.4042969 1128.68623,82.1777344 1110.52217,82.1777344 C1094.40888,82.1777344 1082.69013,88.3300781 1075.36592,100.634766 C1068.0417,112.939453 1064.37959,127.783203 1064.37959,145.166016 C1064.37959,161.865234 1068.0417,175.78125 1075.36592,186.914062 C1082.69013,198.046875 1094.31123,203.613281 1110.2292,203.613281 Z M1111.25459,59.1796875 C1131.46943,59.1796875 1148.55928,65.9179688 1162.52412,79.3945312 C1176.48896,92.8710938 1183.47138,112.695312 1183.47138,138.867188 C1183.47138,164.160156 1177.31904,185.058594 1165.01435,201.5625 C1152.70967,218.066406 1133.61787,226.318359 1107.73896,226.318359 C1086.15693,226.318359 1069.01826,219.018555 1056.32295,204.418945 C1043.62763,189.819336 1037.27998,170.214844 1037.27998,145.605469 C1037.27998,119.238281 1043.96943,98.2421875 1057.34834,82.6171875 C1070.72724,66.9921875 1088.69599,59.1796875 1111.25459,59.1796875 Z" id="path-22"></path>
        <linearGradient x1="49.2492913%" y1="-1.60461922e-15%" x2="50.7507087%" y2="100%" id="linearGradient-23">
            <stop stop-color="#448CCE" offset="0%"></stop>
            <stop stop-color="#29A768" offset="100%"></stop>
        </linearGradient>
        <polygon id="path-24" points="1224.78223 5.41992188 1251.14942 5.41992188 1251.14942 220.605469 1224.78223 220.605469"></polygon>
        <linearGradient x1="49.2492913%" y1="-1.60461922e-15%" x2="50.7507087%" y2="100%" id="linearGradient-25">
            <stop stop-color="#448CCE" offset="0%"></stop>
            <stop stop-color="#448CCE" offset="100%"></stop>
        </linearGradient>
        <linearGradient x1="19.9347492%" y1="-1.60461922e-15%" x2="80.0652508%" y2="100%" id="linearGradient-26">
            <stop stop-color="#448CCE" offset="0%"></stop>
            <stop stop-color="#29A768" offset="100%"></stop>
        </linearGradient>
        <path d="M1315.6048,171.386719 C1316.38605,180.175781 1318.58331,186.914062 1322.1966,191.601562 C1328.83722,200.097656 1340.36066,204.345703 1356.76691,204.345703 C1366.53253,204.345703 1375.12628,202.22168 1382.54816,197.973633 C1389.97003,193.725586 1393.68097,187.158203 1393.68097,178.271484 C1393.68097,171.533203 1390.70245,166.40625 1384.74542,162.890625 C1380.93683,160.742188 1373.4173,158.251953 1362.18683,155.419922 L1341.23956,150.146484 C1327.86066,146.826172 1317.99738,143.115234 1311.64972,139.013672 C1300.3216,131.884766 1294.65753,122.021484 1294.65753,109.423828 C1294.65753,94.5800781 1300.00421,82.5683594 1310.69757,73.3886719 C1321.39093,64.2089844 1335.77081,59.6191406 1353.83722,59.6191406 C1377.47003,59.6191406 1394.51105,66.5527344 1404.96027,80.4199219 C1411.50324,89.2089844 1414.67706,98.6816406 1414.48175,108.837891 L1389.57941,108.837891 C1389.09113,102.880859 1386.99152,97.4609375 1383.28058,92.578125 C1377.22589,85.6445312 1366.72785,82.1777344 1351.78644,82.1777344 C1341.8255,82.1777344 1334.28156,84.0820312 1329.1546,87.890625 C1324.02765,91.6992188 1321.46417,96.7285156 1321.46417,102.978516 C1321.46417,109.814453 1324.83331,115.283203 1331.5716,119.384766 C1335.47785,121.826172 1341.23956,123.974609 1348.85675,125.830078 L1366.28839,130.078125 C1385.2337,134.667969 1397.92902,139.111328 1404.37433,143.408203 C1414.62824,150.146484 1419.75519,160.742188 1419.75519,175.195312 C1419.75519,189.160156 1414.45734,201.220703 1403.86163,211.376953 C1393.26593,221.533203 1377.12824,226.611328 1355.44855,226.611328 C1332.1087,226.611328 1315.58038,221.313477 1305.86359,210.717773 C1296.14679,200.12207 1290.9466,187.011719 1290.263,171.386719 L1315.6048,171.386719 Z" id="path-27"></path>
        <linearGradient x1="19.9347492%" y1="-1.60461922e-15%" x2="80.0652508%" y2="100%" id="linearGradient-28">
            <stop stop-color="#448CCE" offset="0%"></stop>
            <stop stop-color="#448CCE" offset="100%"></stop>
        </linearGradient>
    </defs>
    <g id="Page-2" stroke="none" stroke-width="1" fill="none" fill-rule="evenodd">
        <g id="Layer_1" fill-rule="nonzero">
            <path d="M53.2517428,242.136545 L119.203788,297.098507 C121.549117,299.603595 124.180462,301.824667 127.059687,303.653223 C133.167711,307.54329 140.283147,309.767553 147.741801,309.981363 C150.98649,310.073908 154.297917,309.828186 157.618877,309.100593 C179.677044,304.281888 193.663213,282.419007 188.867683,260.268919 L188.829547,260.281683 L188.908996,260.169992 L99.7674317,185.866194 C77.4677399,167.267906 74.3724143,133.919912 92.8935207,111.520911 L108.856376,92.2109863 C117.821379,81.3577302 130.46963,74.6626018 144.446264,73.3574029 C158.416543,72.0426303 172.091272,76.296494 182.893132,85.3084303 L247.570819,139.217297 C249.839877,141.610694 252.359993,143.739221 255.115278,145.510335 C261.280506,149.461035 268.497635,151.720401 276.06434,151.915064 C279.27725,152.001227 282.541007,151.745931 285.817476,151.031103 C307.85022,146.215589 321.81732,124.419723 317.075815,102.295164 L317.167976,102.183472 L229.405643,29.0412699 C203.645161,7.56452375 171.099751,-2.54837502 137.721717,0.547084686 C104.365929,3.66169156 74.2166946,19.6208606 52.8195412,45.4950743 L36.8566864,64.8049987 C-7.30731778,118.228804 0.0496419798,197.778927 53.2517428,242.136545 Z" id="Path" fill="#448CCE"></path>
            <path d="M260.657062,182.611666 L193.789193,131.566819 L188.336435,127.400087 C181.226216,122.89276 172.75758,120.581799 163.980356,121.062454 C161.785255,121.18023 159.564704,121.428515 157.353696,121.909169 C134.985934,126.782558 120.825942,148.870373 125.686977,171.238304 L125.725153,171.231938 L125.661527,171.311516 L216.443272,240.598945 C239.510921,258.211263 243.958387,291.335028 226.356222,314.425532 L211.178211,334.313796 C202.661855,345.502537 190.286575,352.696435 176.358818,354.568122 C162.434242,356.446175 148.589198,352.772831 137.413271,344.251562 L67.1191354,290.593356 L66.9250757,290.450115 C59.2040463,284.418063 49.3960801,281.199907 39.1777256,281.769689 C36.998531,281.881099 34.8097925,282.13575 32.6146915,282.610038 C10.2532922,287.489794 -3.91624434,309.574425 0.960697625,331.94554 L1.07840594,331.920074 L93.1899373,402.238841 C115.296832,419.106304 141.746209,428 169.076809,428 C174.714083,428 180.395895,427.627573 186.071345,426.857252 C219.309629,422.397672 248.81306,405.234176 269.147967,378.565822 L284.329159,358.664824 C326.300128,303.59967 315.690473,224.629127 260.657062,182.611666 Z" id="Path" fill="#29A768"></path>
        </g>
        <g id="SKIP.tools" transform="translate(429.493609, 121.394531)" fill-rule="nonzero">
            <g id="Group">
                <g id="Path">
                    <use fill="#448CCE" xlink:href="#path-2"></use>
                    <use fill="#448CCE" xlink:href="#path-2"></use>
                    <use fill="url(#linearGradient-3)" xlink:href="#path-2"></use>
                </g>
                <g id="Path">
                    <use fill="#448CCE" xlink:href="#path-5"></use>
                    <use fill="#448CCE" xlink:href="#path-5"></use>
                    <use fill="url(#linearGradient-6)" xlink:href="#path-5"></use>
                </g>
                <g id="Path">
                    <use fill="#448CCE" xlink:href="#path-8"></use>
                    <use fill="#448CCE" xlink:href="#path-8"></use>
                    <use fill="url(#linearGradient-9)" xlink:href="#path-8"></use>
                </g>
                <g id="Shape">
                    <use fill="#448CCE" xlink:href="#path-11"></use>
                    <use fill="#448CCE" xlink:href="#path-11"></use>
                    <use fill="url(#linearGradient-12)" xlink:href="#path-11"></use>
                </g>
                <g id="Path">
                    <use fill="#448CCE" xlink:href="#path-14"></use>
                    <use fill="#448CCE" xlink:href="#path-14"></use>
                    <use fill="url(#linearGradient-15)" xlink:href="#path-14"></use>
                </g>
                <g id="Path">
                    <use fill="#448CCE" xlink:href="#path-17"></use>
                    <use fill="#448CCE" xlink:href="#path-17"></use>
                    <use fill="url(#linearGradient-18)" xlink:href="#path-17"></use>
                </g>
                <g id="Shape">
                    <use fill="#448CCE" xlink:href="#path-20"></use>
                    <use fill="#448CCE" xlink:href="#path-20"></use>
                    <use fill="url(#linearGradient-21)" xlink:href="#path-20"></use>
                </g>
                <g id="Shape">
                    <use fill="#448CCE" xlink:href="#path-22"></use>
                    <use fill="#448CCE" xlink:href="#path-22"></use>
                    <use fill="url(#linearGradient-21)" xlink:href="#path-22"></use>
                </g>
                <g id="Path">
                    <use fill="#448CCE" xlink:href="#path-24"></use>
                    <use fill="#448CCE" xlink:href="#path-24"></use>
                    <use fill="url(#linearGradient-25)" xlink:href="#path-24"></use>
                </g>
                <g id="Path">
                    <use fill="#448CCE" xlink:href="#path-27"></use>
                    <use fill="#448CCE" xlink:href="#path-27"></use>
                    <use fill="url(#linearGradient-28)" xlink:href="#path-27"></use>
                </g>
            </g>
        </g>
    </g>
</svg>